<svg xmlns="http://www.w3.org/2000/svg" viewBox="0 0 199.01 55.14"><g id="레이어_2" data-name="레이어 2"><g id="레이어_1-2" data-name="레이어 1"><path d="M29.06,52.74,10.33,29.8V52.74H0V1.25H10.33V24.34L29.06,1.25H41.53L20.28,26.78l21.84,26Z"/><path d="M71.35,53.11A23.84,23.84,0,0,1,61,50.89a25,25,0,0,1-8-6,27.65,27.65,0,0,1-5.23-8.55,26.82,26.82,0,0,1-1.85-9.78,25.9,25.9,0,0,1,2-10,28.11,28.11,0,0,1,5.38-8.48,25.31,25.31,0,0,1,8.15-5.9A24.23,24.23,0,0,1,71.57,0,23.27,23.27,0,0,1,81.94,2.29a24.78,24.78,0,0,1,8,6.12A28.89,28.89,0,0,1,95.07,17a27.15,27.15,0,0,1,1.8,9.74A26.62,26.62,0,0,1,95,36.62a27,27,0,0,1-5.31,8.48A25,25,0,0,1,81.57,51,24.43,24.43,0,0,1,71.35,53.11ZM56.16,26.55a21,21,0,0,0,1,6.57,17.94,17.94,0,0,0,3,5.64,13.88,13.88,0,0,0,11.25,5.35A13.72,13.72,0,0,0,78,42.6a15.11,15.11,0,0,0,4.76-4,17.37,17.37,0,0,0,2.91-5.68,21.84,21.84,0,0,0,1-6.35,20.64,20.64,0,0,0-1-6.52,17.69,17.69,0,0,0-3-5.61,14.61,14.61,0,0,0-4.79-3.91,13.86,13.86,0,0,0-6.42-1.44,13.58,13.58,0,0,0-6.45,1.51,15.21,15.21,0,0,0-4.8,4,17.66,17.66,0,0,0-3,5.6A21.08,21.08,0,0,0,56.16,26.55Z"/><path d="M136.05,1.58V38.81q0,7.74-4.48,12t-12,4.29c-5.07,0-9.15-1.47-12.27-4.41s-4.67-7-4.67-12.3h10.63a8.48,8.48,0,0,0,1.64,5.32,5.5,5.5,0,0,0,4.52,1.89,5.38,5.38,0,0,0,4.4-1.82,7.61,7.61,0,0,0,1.52-5V1.58Z"/><path d="M173.49,53.11a23.86,23.86,0,0,1-10.41-2.22,25.17,25.17,0,0,1-8-6,27.84,27.84,0,0,1-5.23-8.55A26.82,26.82,0,0,1,148,26.55a26.08,26.08,0,0,1,2-10,28.31,28.31,0,0,1,5.38-8.48,25.42,25.42,0,0,1,8.15-5.9A24.24,24.24,0,0,1,173.71,0a23.23,23.23,0,0,1,10.36,2.29,24.78,24.78,0,0,1,8,6.12A28.68,28.68,0,0,1,197.2,17,27.16,27.16,0,0,1,199,26.7a26.63,26.63,0,0,1-1.89,9.92,27,27,0,0,1-5.31,8.48A25,25,0,0,1,183.7,51,24.38,24.38,0,0,1,173.49,53.11Zm-15.2-26.56a21,21,0,0,0,1,6.57,18.14,18.14,0,0,0,3,5.64,13.88,13.88,0,0,0,11.25,5.35,13.69,13.69,0,0,0,6.56-1.51,15,15,0,0,0,4.76-4,17.37,17.37,0,0,0,2.91-5.68,21.84,21.84,0,0,0,1-6.35,20.64,20.64,0,0,0-1-6.52,17.87,17.87,0,0,0-3-5.61,14.75,14.75,0,0,0-4.8-3.91,13.85,13.85,0,0,0-6.41-1.44A13.63,13.63,0,0,0,167,10.58a15.06,15.06,0,0,0-4.79,4,17.26,17.26,0,0,0-3,5.6A20.79,20.79,0,0,0,158.29,26.55Z"/><circle cx="71.53" cy="26.13" r="6.37"/><circle cx="173.69" cy="26.13" r="6.37"/></g></g></svg>