<svg xmlns="http://www.w3.org/2000/svg" viewBox="0 0 89.77 83.48"><defs><style>.cls-1{fill:#e25033;}</style></defs><g id="레이어_2" data-name="레이어 2"><g id="레이어_1-2" data-name="레이어 1"><path class="cls-1" d="M36.53,10.82s.3-2.56,1.24-7.06A3.1,3.1,0,0,0,34.11.07C19,3.19,6.45,10.41.65,24.38a8.6,8.6,0,0,0,4.25,11,165.57,165.57,0,0,0,17.85,7.19l9.33,3.23-5,5.66a2.31,2.31,0,0,0-.58,1.42l-.77,13.37L34.06,58a24.06,24.06,0,0,1,28-4.33c3.27,1.73,7.72,6.85,6.2,12.06-2.81,9.68-15.86,9.58-18.62,9.45a1.73,1.73,0,0,0-1,.24l-11.59,7c28.82,6,52.65-14.33,52.65-40.28C89.77,16.56,65.75-2.41,36.53,10.82ZM18.7,27.08a7,7,0,1,1,7-7A7,7,0,0,1,18.7,27.08Z"/><circle class="cls-1" cx="18.71" cy="20.04" r="2.28"/></g></g></svg>